<?xml version="1.0" encoding="utf-8"?>
<!-- Generator: Adobe Illustrator 27.5.0, SVG Export Plug-In . SVG Version: 6.00 Build 0)  -->
<svg version="1.1" xmlns="http://www.w3.org/2000/svg" xmlns:xlink="http://www.w3.org/1999/xlink" x="0px" y="0px"
	 viewBox="0 0 1122 1122" style="enable-background:new 0 0 1122 1122;" xml:space="preserve">
<g id="Bg">
	<rect style="fill:#FFFFFF;" width="1122" height="1122"/>
</g>
<g id="Object">
	<g>
		<path style="fill:#616E7D;" d="M713.094,550.947c0,49.47,40.107,89.58,89.601,89.58c49.458,0,89.57-40.109,89.57-89.58
			c0-49.469-40.113-89.601-89.57-89.601C753.201,461.347,713.094,501.478,713.094,550.947z"/>
		<path style="fill:#FFFFFF;" d="M813.25,691.413l10.392,68.203h12.437l19.318-101.429c-1.9-0.145-3.795-0.287-5.725-0.287h-93.94
			c-1.925,0-3.837,0.142-5.737,0.287l19.342,101.429h12.413l10.392-68.203h0.363l-10.204-18.71h40.754h0.025l-10.21,18.71H813.25z"
			/>
		<path style="fill:#616E7D;" d="M229.722,550.947c0,49.47,40.089,89.58,89.601,89.58c49.476,0,89.589-40.109,89.589-89.58
			c0-49.469-40.113-89.601-89.589-89.601C269.811,461.347,229.722,501.478,229.722,550.947z"/>
		<path style="fill:#616E7D;" d="M746.447,774.093v-55.183c8.412,16.679,13.502,35.323,13.908,55.183h178.414v-40.888
			c0-46.492-37.68-84.22-84.208-84.22H750.835c-8.708,0-17.03,1.522-24.916,3.985c-20.722-29.797-55.195-49.351-94.231-49.351
			H490.324c-39.042,0-73.503,19.554-94.242,49.373c-7.88-2.484-16.208-4.007-24.911-4.007H267.445
			c-46.51,0-84.214,37.729-84.214,84.22v40.888h178.753c0.369-19.609,5.368-38.013,13.581-54.547v54.547H746.447z M755.731,657.9
			h93.94c1.93,0,3.825,0.142,5.725,0.287l-19.318,101.429h-12.437l-10.392-68.203h-0.381l10.21-18.71h-0.025H782.3l10.204,18.71
			h-0.363l-10.392,68.203h-12.413l-19.342-101.429C751.894,658.042,753.806,657.9,755.731,657.9z M496.994,615.735h128.037
			c2.615,0,5.205,0.206,7.771,0.393l-26.339,138.253h-16.934h-57.041h-16.982l-26.321-138.253
			C491.777,615.94,494.366,615.735,496.994,615.735z M352.688,759.616h-12.443l-10.373-68.203h-0.369l10.186-18.71H298.91
			l10.209,18.71h-0.357l-10.403,68.203h-12.425l-19.306-101.429c1.888-0.145,3.77-0.287,5.713-0.287h93.946
			c1.931,0,3.844,0.142,5.719,0.287L352.688,759.616z"/>
		<path style="fill:#FFFFFF;" d="M329.872,691.413l10.373,68.203h12.443l19.318-101.429c-1.876-0.145-3.788-0.287-5.719-0.287
			h-93.946c-1.943,0-3.825,0.142-5.713,0.287l19.306,101.429h12.425l10.403-68.203h0.357l-10.209-18.71h40.779l-10.186,18.71
			H329.872z"/>
		<path style="fill:#616E7D;" d="M438.906,469.995c0,67.438,54.674,122.107,122.112,122.107
			c67.402,0,122.076-54.668,122.076-122.107c0-67.423-54.674-122.088-122.076-122.088
			C493.58,347.907,438.906,402.572,438.906,469.995z"/>
		<path style="fill:#FFFFFF;" d="M575.386,661.428h0.018l14.125,92.953h16.934l26.339-138.253c-2.566-0.188-5.156-0.393-7.771-0.393
			H496.994c-2.627,0-5.217,0.206-7.807,0.393l26.321,138.253h16.982l14.119-92.953h0.521l-13.883-25.522h55.546l-13.908,25.522
			H575.386z"/>
		<polygon style="fill:#AAD4C8;" points="532.489,754.381 589.529,754.381 575.404,661.428 575.386,661.428 574.883,661.428 
			588.791,635.906 533.245,635.906 547.129,661.428 546.608,661.428 		"/>
	</g>
</g>
</svg>
